PathFileType	4	(X/Y/Z)	RBDS022\RBDS022runT45.trc
DataRate	CameraRate	NumFrames	NumMarkers	Units	OrigDataRate	OrigDataStartFrame	OrigNumFrames
150.000000	150.000000	4	32	mm	150.000000	562	4500
Frame#	Time	L.ASIS			L.Heel.Bottom			L.Heel.Lateral			L.Heel.Top			L.Iliac.Crest			L.MT1			L.MT5			L.PSIS			L.Shank.Bottom.Lateral			L.Shank.Bottom.Medial			L.Shank.Top.Lateral			L.Shank.Top.Medial			L.Thigh.Bottom.Lateral			L.Thigh.Bottom.Medial			L.Thigh.Top.Lateral			L.Thigh.Top.Medial			R.ASIS			R.Heel.Bottom			R.Heel.Lateral			R.Heel.Top			R.Iliac.Crest			R.MT1			R.MT5			R.PSIS			R.Shank.Bottom.Lateral			R.Shank.Bottom.Medial			R.Shank.Top.Lateral			R.Shank.Top.Medial			R.Thigh.Bottom.Lateral			R.Thigh.Bottom.Medial			R.Thigh.Top.Lateral			R.Thigh.Top.Medial			
		X1	Y1	Z1	X2	Y2	Z2	X3	Y3	Z3	X4	Y4	Z4	X5	Y5	Z5	X6	Y6	Z6	X7	Y7	Z7	X8	Y8	Z8	X9	Y9	Z9	X10	Y10	Z10	X11	Y11	Z11	X12	Y12	Z12	X13	Y13	Z13	X14	Y14	Z14	X15	Y15	Z15	X16	Y16	Z16	X17	Y17	Z17	X18	Y18	Z18	X19	Y19	Z19	X20	Y20	Z20	X21	Y21	Z21	X22	Y22	Z22	X23	Y23	Z23	X24	Y24	Z24	X25	Y25	Z25	X26	Y26	Z26	X27	Y27	Z27	X28	Y28	Z28	X29	Y29	Z29	X30	Y30	Z30	X31	Y31	Z31	X32	Y32	Z32	

563	3.746666666666667	2165.510032239402	946.5226426577758	907.6625248203338	1945.032943314082	223.000285759819	965.0224167019661	1977.976357249663	229.2379368765669	916.4357333422553	1982.914467331189	250.0039188655365	969.5297547854954	2080.26011718044	1023.925067042742	856.8585093890576	2114.723966085619	80.74909370786399	949.009291839173	2073.465893489903	121.730835591132	849.7559084344502	1994.55628342068	988.6809940722893	972.1548951571624	2082.76398660265	295.3505535183629	894.6425360464121	2054.566495075485	318.8159342150284	936.9712665595678	2122.041921604491	365.0144294686369	884.1667384171209	2095.657761789443	388.2340764984497	925.0618964545473	2265.372294000065	636.9556948804939	860.8583711225026	2210.878566408805	600.7046784712238	893.3986903535822	2199.166496339887	722.3644099654296	844.1930486457014	2145.891294410533	686.5462366545332	871.5605232827901	2151.515197579704	950.541843595565	1145.466276196192	1629.174360956332	131.2718182636473	997.4163448309768	1656.690796999114	135.728425521389	1047.547523745493	1656.386821968945	165.1068789758086	1000.484808245849	2104.821699698766	1022.452622468552	1179.515146521146	1813.96898740232	39.34087644180065	990.4518342106019	1776.913283940886	47.67563392585328	1100.810622410453	1997.8628558391	994.5078902524879	1058.21264779794	1746.053792496287	221.7555749625018	1078.537927107375	1727.553263601739	251.2606699200901	1041.146530287269	1793.427869888597	287.4088449210422	1104.749503390096	1768.2742265927	316.203720129857	1067.516598527475	2000.6773238349	582.2789303453936	1161.668892350699	1940.478883408413	601.9701322887296	1128.818633883621	2020.610023629746	688.2599953189612	1187.418576575262	1961.428815505085	706.0611227952338	1157.547980549277	
564	3.753333333333333	2166.779841768521	953.244445735725	907.214836913159	1973.205585222377	199.3348190866115	965.3423096506182	2005.579156476879	208.1430583382085	916.7127897759066	2008.588636696104	229.6452880449496	969.6841800966997	2081.394132061175	1031.620301181741	856.520125386432	2155.12866984129	72.27599223698091	950.9165809309097	2110.492494578136	108.7397726574056	851.1460033029504	1995.870802096222	993.5292610890989	972.0486517484212	2104.687194188124	283.4011578766945	895.0909462452017	2074.911035013331	304.5634716299634	937.5349100214955	2138.283046143978	356.0065802059888	884.3493156755276	2110.35357950875	377.0408214798838	925.4508211794824	2266.573467780795	642.8734831910841	861.926540942949	2211.795996990997	606.5209533143528	893.7436973926355	2200.368507625377	728.1278137635742	844.5471202583545	2147.063233261234	692.4146136377423	871.7526197622024	2154.169114147458	953.0743943588592	1144.431052614553	1611.245384811165	147.9836868593643	998.7547841767956	1638.436288265559	149.3554193514801	1049.193330549062	1640.793526923213	179.5167905575402	1002.750533805879	2110.622701598217	1025.385707339553	1178.811881950852	1787.714544961601	41.9099270055338	991.8171888190161	1750.742213694647	51.19946842120926	1101.798291736787	2000.192765644567	998.5026174848117	1058.501292632222	1728.325199697953	231.6552753374883	1080.419480855122	1710.575348390857	260.7118230611002	1042.268488793351	1775.885265891666	297.4320075756144	1106.203085880562	1751.275412668098	325.8596773891639	1068.334824807758	1990.411570836003	589.8394014027853	1162.514171656917	1931.433927109813	611.8311881576954	1129.019674329965	2014.583570097887	694.993242568299	1187.946940182271	1956.572473001443	714.9890364971	1157.316043757035	
565	3.76	2168.029977018899	959.5843277624738	907.0015319272981	2002.734785832662	176.624610712473	965.4439639118476	2034.474879555624	187.8430288949616	916.8363326462647	2035.258545232923	209.9782293486365	969.5759054252582	2083.105884336541	1039.233623576534	856.1395167587302	2195.314019751923	66.04220756744373	953.6021881656717	2148.20038951245	97.37158321154658	853.0815478833875	1997.320866736861	998.2399557596665	971.7700670518751	2126.982571393382	271.8512759342474	895.4314850974605	2095.724420601039	290.6792574972056	937.8382808500438	2154.76368072598	346.8580689394996	884.3028886422852	2125.352257402978	365.6779915967247	925.4469793277746	2266.758028629389	647.3700212519044	862.8427830211044	2211.534309428951	611.1594198839999	893.9215667684691	2200.986872444071	732.7961074915144	844.8645184132949	2147.470678865093	697.4492267655817	871.9030972470871	2156.687830561854	955.5438043052829	1143.381231590248	1595.208847246815	165.4036501848843	1000.322305743564	1621.850041480826	163.7390491269659	1051.038391996399	1627.053954555343	194.3815841131978	1005.206382331551	2116.307076270903	1028.216437722021	1177.934337320621	1762.337807529271	45.25003250497058	993.5172754421623	1725.306374649383	55.83335185709942	1102.975934121464	2002.442004219637	1002.435193133989	1058.593581679045	1712.11824993112	241.7559439406334	1082.524801461749	1695.048822281359	270.3286000159553	1043.63165281293	1759.889900234514	307.6806353346609	1107.795132482757	1735.756667059925	335.7082548157473	1069.306156886898	1981.131143119945	597.6005057898681	1163.320137450375	1923.477418052345	621.6609987588619	1129.031803327782	2009.127226938203	701.835892773321	1188.518879162942	1952.435089430742	723.8027648162663	1156.916680148309	
566	3.766666666666667	2169.188918924464	965.4023662238749	907.0068050187365	2033.364613714217	155.0857708579551	965.2707557651186	2064.450631564398	168.5625304966608	916.7652376096663	2062.680186904391	191.1846980205604	969.1397873620022	2085.142557396643	1046.554353195389	855.745537031345	2234.836640544298	62.20954782667025	957.0507897022387	2186.300042397697	87.8735604242992	855.5611976951428	1998.863077629658	1002.749672748723	971.3416372273215	2149.463115480427	260.8889442973663	895.6233645619715	2116.788375614982	277.3594722174355	937.8191354934695	2171.372474021477	337.7460048234342	883.9984950993095	2140.510365167827	354.3261455771386	924.9936228000821	2266.009112348136	650.4256245943423	863.5415106333309	2210.22879159283	614.58802631604	893.9458806146873	2201.041522098647	736.3115776467818	845.0992897798993	2147.168518641551	701.5592315731748	872.0015748437584	2158.988831735488	957.9480946224658	1142.347189582292	1580.89616869967	183.3411554825677	1002.063572190696	1606.778380940685	178.7920638104455	1053.029545329328	1614.931284168947	209.5690380973307	1007.765398254871	2121.75655902329	1030.997978404291	1176.904118449842	1737.832967795744	49.50050780822487	995.5615012920056	1700.656532818647	61.74978404269123	1104.352004528732	2004.549717242143	1006.298856452863	1058.509454936104	1697.356655656758	252.0069470624578	1084.805637405516	1680.894692441231	280.1133095086925	1045.2309296298	1745.462588627937	318.0159696634054	1109.489197670245	1721.744205267279	345.6711411412734	1070.434417498327	1972.94335498543	605.2833456168549	1163.97882461573	1916.647598097743	631.1619699857924	1128.798392726001	2004.305804427114	708.5672731848591	1189.0373003108	1949.010204319324	732.2650801974287	1156.317589577291	
